<?xml version="1.0" standalone="no"?>
<!DOCTYPE svg PUBLIC "-//W3C//DTD SVG 20010904//EN"
 "http://www.w3.org/TR/2001/REC-SVG-20010904/DTD/svg10.dtd">
<svg version="1.0" xmlns="http://www.w3.org/2000/svg"
 width="200.000000pt" height="100.000000pt" viewBox="0 0 200.000000 100.000000"
 preserveAspectRatio="xMidYMid meet">

<g transform="translate(0.000000,100.000000) scale(0.100000,-0.100000)"
fill="#000000" stroke="none">
<path d="M290 779 c0 -13 11 -25 35 -35 19 -8 35 -21 35 -29 0 -9 -14 -40 -31
-70 -35 -63 -53 -163 -41 -239 12 -81 30 -68 24 18 -2 41 -2 86 2 100 6 23 11
26 54 26 l47 0 2 -84 c2 -112 35 -227 59 -203 3 2 -4 32 -16 66 -13 41 -20 86
-20 141 l0 80 60 0 c33 0 60 4 60 10 0 6 -25 10 -55 10 -52 0 -55 2 -55 24 0
24 23 56 40 56 17 0 40 32 40 55 0 14 -11 33 -27 45 -25 19 -36 21 -90 15 -70
-7 -103 -1 -103 21 0 8 -4 14 -10 14 -5 0 -10 -9 -10 -21z m209 -57 c11 -20
-3 -52 -23 -52 -20 0 -43 -31 -51 -67 -6 -31 -9 -33 -51 -33 -53 0 -56 14 -19
75 14 22 25 52 25 68 0 26 2 27 55 27 42 0 56 -4 64 -18z"/>
<path d="M970 746 c0 -31 -5 -36 -52 -59 -50 -25 -86 -62 -74 -75 4 -3 19 6
34 20 54 50 92 61 92 25 0 -17 -10 -28 -36 -40 -32 -16 -35 -20 -32 -55 3 -32
8 -40 41 -55 36 -18 42 -37 11 -37 -27 0 -54 -38 -54 -78 0 -53 23 -72 88 -72
67 0 84 17 80 79 -3 41 -6 48 -38 63 -40 20 -46 41 -12 46 28 4 56 45 47 71
-3 11 -21 29 -40 40 -22 13 -35 28 -35 41 0 37 50 21 108 -33 30 -29 32 -29
32 -10 0 25 -68 79 -111 88 -25 6 -29 11 -29 41 0 19 -4 34 -10 34 -5 0 -10
-15 -10 -34z m45 -146 c21 -8 26 -16 23 -37 -6 -54 -118 -54 -118 0 0 37 47
55 95 37z m16 -160 c13 -7 19 -21 19 -45 0 -39 -20 -55 -69 -55 -36 0 -61 23
-61 55 0 43 65 69 111 45z"/>
<path d="M1522 760 c-32 -13 -48 -53 -34 -85 6 -14 18 -25 26 -25 29 0 46 -30
46 -81 0 -48 -1 -50 -22 -44 -31 9 -48 33 -48 67 0 15 -4 28 -10 28 -5 0 -10
-17 -10 -38 0 -43 18 -65 64 -76 27 -7 28 -8 21 -54 -3 -26 -17 -71 -31 -101
-26 -58 -29 -71 -15 -71 14 0 59 112 67 167 5 41 11 54 28 59 41 13 56 35 56
86 0 26 -4 48 -10 48 -5 0 -10 -19 -10 -43 0 -46 -13 -67 -42 -67 -14 0 -18 8
-18 39 0 56 -15 87 -43 95 -50 12 -41 69 13 81 31 7 80 -15 80 -35 0 -14 -30
-40 -46 -40 -8 0 -14 -4 -14 -10 0 -17 39 -11 60 10 11 11 20 23 20 28 -1 58
-62 88 -128 62z"/>
</g>
</svg>
